<?xml version="1.0" encoding="utf-8"?>
<svg xmlns="http://www.w3.org/2000/svg" viewBox="0 0 874 451.37" role="img" aria-labelledby="title">
    <title id="title">Foundation for Assistance to Small Innovative Enterprises</title>
    <style>
        .mark {
            fill: #55565b;
            font-family: Arial, Helvetica, sans-serif;
            font-size: 146px;
            font-weight: 800;
        }

        .subtitle {
            fill: #55565b;
            font-family: Arial, Helvetica, sans-serif;
            font-size: 34px;
            font-weight: 700;
        }

        .red {
            fill: #ef2b2d;
        }

        .blue {
            fill: #00a0dc;
        }
    </style>
    <g aria-hidden="true">
        <text class="mark" x="82" y="162">FASIE</text>
        <text class="subtitle" x="88" y="216">FOUNDATION FOR ASSISTANCE TO</text>
        <text class="subtitle" x="88" y="258">SMALL INNOVATIVE ENTERPRISES</text>
    </g>
    <path class="red" d="M143.04,264.14H69.86c97.31,102.98,236.58,142.1,353.63,147.2c5.46,0.23,10.85,0.38,16.21,0.47c1.61,0.02,3.21,0.04,4.81,0.05c4.88,0.05,9.75,0.07,14.53,0.01c75.95-1.1,160.31-17.62,233.68-56.72c42.09-22.44,80.58-52.29,111.76-91c0,0,0,0-0.01,0.01C626.96,437.82,272,407.75,143.04,264.14z"/>
    <path class="blue" d="M804.47,264.15c-0.09,0.05-0.17,0.11-0.25,0.17c-2.78,1.94-5.37,3.69-7.81,5.31c-1.41,0.93-2.74,1.81-4.05,2.64c-1.09,0.71-2.21,1.37-3.3,2.07c-3.68,2.36-7.38,4.71-11.11,6.96c-1.43,0.86-2.87,1.68-4.31,2.53c-3.81,2.25-7.63,4.47-11.48,6.6c-1.41,0.78-2.83,1.51-4.24,2.28c-3.92,2.12-7.84,4.22-11.8,6.22c-1.39,0.7-2.8,1.36-4.19,2.06c-4.01,1.99-8.02,3.95-12.07,5.82c-1.38,0.64-2.77,1.23-4.16,1.86c-4.09,1.85-8.18,3.67-12.3,5.41c-1.39,0.58-2.79,1.12-4.18,1.69c-4.14,1.7-8.28,3.38-12.45,4.96c-1.42,0.54-2.85,1.04-4.27,1.56c-4.16,1.54-8.33,3.07-12.52,4.5c-1.46,0.51-2.94,0.96-4.4,1.44c-4.16,1.38-8.33,2.76-12.51,4.04c-1.53,0.47-3.07,0.88-4.6,1.34c-4.13,1.22-8.27,2.44-12.41,3.56c-1.63,0.44-3.26,0.82-4.89,1.25c-4.07,1.06-8.13,2.12-12.21,3.08c-1.75,0.41-3.51,0.77-5.26,1.17c-3.97,0.9-7.94,1.8-11.91,2.61c-1.89,0.38-3.78,0.7-5.68,1.07c-3.84,0.74-7.68,1.49-11.52,2.15c-2.12,0.36-4.24,0.65-6.36,0.99c-3.62,0.58-7.24,1.18-10.86,1.68c-2.44,0.35-4.87,0.6-7.31,0.91c-3.3,0.42-6.6,0.87-9.9,1.23c-3.04,0.33-6.07,0.57-9.1,0.85c-2.69,0.25-5.39,0.54-8.08,0.75c-5.73,0.45-11.44,0.81-17.14,1.09c-0.01,0-0.02,0-0.02,0c-3.34,0.16-6.67,0.29-9.99,0.39c-0.06,0-0.11,0.01-0.17,0.01c-3.28,0.1-6.54,0.17-9.81,0.21c-0.11,0-0.22,0-0.33,0.01c-3.2,0.04-6.4,0.05-9.59,0.04c-0.19,0-0.37-0.01-0.55-0.01c-3.12-0.02-6.24-0.06-9.35-0.13c-0.23,0-0.46-0.01-0.69-0.02c-3.06-0.07-6.11-0.16-9.16-0.28c-0.28-0.01-0.56-0.02-0.85-0.04c-2.99-0.12-5.97-0.27-8.94-0.44c-0.34-0.02-0.67-0.04-1.01-0.07c-2.91-0.17-5.81-0.36-8.7-0.58c-0.42-0.03-0.84-0.07-1.27-0.1c-2.81-0.22-5.61-0.45-8.4-0.71c-0.47-0.04-0.94-0.1-1.41-0.14c-2.73-0.26-5.46-0.54-8.17-0.84c-0.54-0.06-1.08-0.13-1.62-0.19c-2.64-0.3-5.28-0.61-7.91-0.96c-0.58-0.07-1.16-0.15-1.74-0.23c-2.57-0.34-5.13-0.69-7.68-1.07c-0.65-0.1-1.29-0.2-1.94-0.3c-2.47-0.38-4.94-0.76-7.4-1.17c-0.71-0.12-1.41-0.25-2.12-0.37c-2.39-0.41-4.77-0.82-7.14-1.27c-0.76-0.14-1.5-0.29-2.26-0.43c-2.31-0.44-4.61-0.89-6.9-1.36c-0.82-0.17-1.63-0.35-2.45-0.52c-2.21-0.46-4.41-0.93-6.6-1.43c-0.88-0.2-1.75-0.41-2.63-0.61c-2.12-0.49-4.23-0.98-6.33-1.49c-0.92-0.23-1.83-0.46-2.75-0.7c-2.04-0.51-4.07-1.02-6.09-1.56c-0.99-0.26-1.96-0.54-2.94-0.81c-1.93-0.52-3.87-1.05-5.78-1.6c-1.03-0.29-2.04-0.6-3.07-0.91c-1.85-0.54-3.72-1.09-5.55-1.66c-1.04-0.32-2.07-0.66-3.11-0.99c-1.8-0.57-3.59-1.14-5.37-1.73c-1.08-0.36-2.15-0.73-3.22-1.1c-1.71-0.59-3.43-1.16-5.12-1.77c-1.12-0.39-2.22-0.81-3.34-1.22c-1.63-0.6-3.26-1.18-4.87-1.8c-1.16-0.44-2.29-0.89-3.44-1.34c-1.55-0.61-3.1-1.2-4.63-1.82c-1.18-0.48-2.33-0.97-3.5-1.46c-1.48-0.61-2.96-1.22-4.42-1.85c-1.2-0.52-2.38-1.06-3.57-1.58c-1.4-0.62-2.82-1.23-4.2-1.87c-1.21-0.56-2.4-1.13-3.6-1.69c-1.34-0.64-2.69-1.25-4.01-1.9c-1.23-0.6-2.44-1.22-3.66-1.83c-1.26-0.63-2.54-1.25-3.78-1.9c-1.23-0.64-2.44-1.29-3.66-1.94c-1.21-0.64-2.43-1.28-3.63-1.93c-1.23-0.67-2.42-1.36-3.63-2.05c-1.15-0.65-2.32-1.3-3.47-1.96c-1.23-0.72-2.43-1.45-3.64-2.18c-1.09-0.65-2.2-1.3-3.28-1.97c-1.21-0.74-2.38-1.51-3.57-2.26c-1.06-0.67-2.12-1.33-3.16-2.01c-1.23-0.8-2.42-1.62-3.63-2.44c-0.97-0.66-1.95-1.3-2.91-1.96c-1.24-0.86-2.44-1.74-3.66-2.61c-0.89-0.64-1.81-1.28-2.69-1.93c-1.2-0.89-2.38-1.8-3.56-2.7c-0.86-0.66-1.74-1.31-2.59-1.97c-1.21-0.95-2.39-1.92-3.58-2.89c-0.78-0.64-1.59-1.27-2.36-1.91c-1.26-1.05-2.47-2.11-3.7-3.18c-0.67-0.58-1.36-1.15-2.03-1.74c-1.87-1.66-3.71-3.35-5.51-5.05h-75.37C272,407.75,626.96,437.82,804.47,264.15z"/>
</svg>
