<?xml version="1.0" encoding="UTF-8"?>
<svg version="1.1" xmlns="http://www.w3.org/2000/svg" width="1024" height="1024">
<path d="M0 0 C0.33 0.99 0.66 1.98 1 3 C6.80255353 2.88194465 12.60492888 2.75771038 18.40722656 2.62768555 C20.38212462 2.58430797 22.35706087 2.542635 24.33203125 2.50268555 C27.1667839 2.44505127 30.00134378 2.3813373 32.8359375 2.31640625 C33.72243988 2.29969376 34.60894226 2.28298126 35.52230835 2.26576233 C39.89925155 2.28914789 39.89925155 2.28914789 44 1 C44 1.66 44 2.32 44 3 C45.32 3 46.64 3 48 3 C48.61113647 4.49708496 48.61113647 4.49708496 49.23461914 6.02441406 C53.85651017 17.31524252 58.62129178 28.54089745 63.4375 39.75 C64.22604672 41.58786751 65.01453854 43.42575857 65.80297852 45.26367188 C70.65944149 56.57887073 75.53995438 67.88354337 80.43386841 79.18258667 C85.48231962 90.83960128 90.52357954 102.49951924 95.5 114.1875 C95.9633374 115.26902344 96.4266748 116.35054688 96.90405273 117.46484375 C97.31727783 118.439375 97.73050293 119.41390625 98.15625 120.41796875 C98.51525391 121.26125732 98.87425781 122.1045459 99.24414062 122.97338867 C100 125 100 125 100 127 C100.66 127 101.32 127 102 127 C102.17958252 125.92794312 102.17958252 125.92794312 102.36279297 124.83422852 C103.02316861 121.89694849 103.98803263 119.40828063 105.1953125 116.65234375 C105.65607178 115.59096191 106.11683105 114.52958008 106.59155273 113.43603516 C107.09759033 112.28151855 107.60362793 111.12700195 108.125 109.9375 C109.22598862 107.40378179 110.3224217 104.86810645 111.41796875 102.33203125 C111.70690506 101.66391418 111.99584137 100.99579712 112.29353333 100.30743408 C115.42934272 93.03807972 118.46009616 85.7257114 121.49008179 78.41177368 C127.01190425 65.08380709 132.64027406 51.80973138 138.41088867 38.58764648 C142.3861623 29.46570782 146.24414684 20.29952514 150.01879883 11.09277344 C150.39931396 10.16883789 150.7798291 9.24490234 151.171875 8.29296875 C151.5028418 7.4836792 151.83380859 6.67438965 152.17480469 5.84057617 C153 4 153 4 154 3 C169.84 2.67 185.68 2.34 202 2 C202 66.68 202 131.36 202 198 C198.94436853 199.52781574 195.75376118 199.14210254 192.40234375 199.1328125 C191.65287979 199.13376923 190.90341583 199.13472595 190.13124084 199.13571167 C188.54672156 199.13639241 186.96219948 199.13454551 185.37768555 199.13037109 C182.94378445 199.12501383 180.51006727 199.13032347 178.07617188 199.13671875 C176.53906209 199.1360581 175.00195242 199.1347772 173.46484375 199.1328125 C172.73257065 199.13483673 172.00029755 199.13686096 171.24583435 199.13894653 C166.11495668 199.11495668 166.11495668 199.11495668 165 198 C164.89162134 196.30480165 164.85313821 194.60510021 164.84178162 192.90647888 C164.82709839 191.25103561 164.82709839 191.25103561 164.81211853 189.56214905 C164.80636307 188.34079758 164.8006076 187.11944611 164.79467773 185.86108398 C164.78477814 184.58322021 164.77487854 183.30535645 164.76467896 181.98876953 C164.7375667 178.47449824 164.71659149 174.96021342 164.69667697 171.44589496 C164.67485626 167.77697946 164.64744848 164.10810593 164.62062073 160.43922424 C164.57064073 153.48712609 164.52572167 146.53500471 164.48259836 139.58286101 C164.43327124 131.6700224 164.37833639 123.75722588 164.32291877 115.84442794 C164.20901729 99.56299073 164.10219613 83.28151498 164 67 C162.24185922 71.05133747 160.48433209 75.10294048 158.72732544 79.1547699 C158.13198631 80.52745917 157.53649174 81.90008103 156.94082642 83.27262878 C152.31526605 93.93139109 147.74347554 104.61165658 143.234375 115.3203125 C142.74388672 116.4846582 142.25339844 117.64900391 141.74804688 118.84863281 C140.80601662 121.08571117 139.86407185 123.32282551 138.92211914 125.55993652 C136.41937236 131.50350323 133.9151917 137.44646314 131.409729 143.3888855 C130.15064267 146.37665088 128.89339981 149.36518737 127.63623047 152.35375977 C126.84351221 154.23457474 126.0507097 156.11535421 125.2578125 157.99609375 C124.90293762 158.84110443 124.54806274 159.68611511 124.18243408 160.55673218 C121.56298828 166.76240961 118.79026139 172.86142494 116 179 C106.1 179 96.2 179 86 179 C83.34515949 173.04260958 80.69294168 167.08418515 78.04711914 161.12280273 C77.1475702 159.09805035 76.24655098 157.07395048 75.34399414 155.05053711 C74.04179558 152.13047727 72.74502323 149.20805816 71.44921875 146.28515625 C71.0491008 145.39103531 70.64898285 144.49691437 70.23674011 143.57569885 C68.07445708 138.68306058 66.22861688 133.86215203 64.7928009 128.70481873 C64.53117661 128.14222855 64.26955231 127.57963837 64 127 C62.515 126.505 62.515 126.505 61 126 C60.84833374 124.74364746 60.84833374 124.74364746 60.69360352 123.46191406 C59.91512615 119.57637762 58.52940381 116.19434699 56.90234375 112.609375 C56.59201202 111.91087433 56.2816803 111.21237366 55.96194458 110.4927063 C54.96027824 108.24218001 53.94902481 105.99611009 52.9375 103.75 C52.25057538 102.21138821 51.56429698 100.67248774 50.87866211 99.13330078 C49.53438765 96.11815397 48.18652713 93.10465861 46.83496094 90.09277344 C44.90676908 85.79531304 42.99459043 81.49084919 41.08618164 77.18457031 C39.72836686 74.12114845 38.36454936 71.06042699 37 68 C36.01 68 35.02 68 34 68 C34 110.9 34 153.8 34 198 C29.97078959 199.0073026 26.75009265 199.11408767 22.609375 199.09765625 C21.90476135 199.0962413 21.20014771 199.09482635 20.47418213 199.09336853 C18.23274416 199.08778933 15.99140757 199.07524073 13.75 199.0625 C12.22656395 199.05748231 10.70312632 199.05291987 9.1796875 199.04882812 C5.45309228 199.03782674 1.72655604 199.02057646 -2 199 C-3.20381687 195.38854939 -3.14484259 192.09157219 -3.14044189 188.33239746 C-3.14341302 187.54382528 -3.14638414 186.7552531 -3.1494453 185.94278479 C-3.15813928 183.29192399 -3.15964111 180.64110831 -3.16113281 177.99023438 C-3.16576037 176.09320479 -3.17078495 174.19617613 -3.17617798 172.29914856 C-3.18930714 167.14019875 -3.19574756 161.98126196 -3.20018864 156.82229805 C-3.2031176 153.60188241 -3.207222 150.38147036 -3.21169281 147.16105652 C-3.22536706 137.09263007 -3.23503494 127.02421178 -3.2388947 116.95577669 C-3.24338003 105.31854129 -3.26095026 93.68142307 -3.2898953 82.04422331 C-3.31147557 73.05735134 -3.32159697 64.07051244 -3.32293582 55.08361483 C-3.32398617 49.71179993 -3.32994309 44.3400952 -3.34775543 38.9683075 C-3.36417376 33.91878661 -3.36642214 28.86945947 -3.35761642 23.81992149 C-3.35684278 21.9635078 -3.36123159 20.10708394 -3.37107468 18.25069618 C-3.38369589 15.72276416 -3.3779716 13.19552866 -3.36749268 10.66760254 C-3.37554908 9.9274344 -3.38360548 9.18726626 -3.39190602 8.42466879 C-3.3434053 3.44628402 -3.3434053 3.44628402 -1.47703171 1.02077484 C-0.98961124 0.68391914 -0.50219078 0.34706345 0 0 Z M34 61 C34 62.65 34 64.3 34 66 C34.66 65.34 35.32 64.68 36 64 C35.34 63.01 34.68 62.02 34 61 Z " fill="#011F4C" transform="translate(143,321)"/>
<path d="M0 0 C12.24044816 -0.09315313 24.48081038 -0.16399331 36.72154236 -0.20724869 C42.40693791 -0.22802116 48.0920889 -0.25614757 53.77734375 -0.30175781 C59.27575037 -0.34558721 64.77392346 -0.36921461 70.27249146 -0.37950897 C72.3582018 -0.38683433 74.44390105 -0.40113659 76.5295105 -0.42292023 C97.94380287 -0.63745686 117.93739659 2.32713046 134 18 C145.07491482 31.15810418 148.06752353 45.18650439 147 62 C144.99796224 74.51273603 139.11446608 85.34580945 129 93 C128.34 93.66 127.68 94.32 127 95 C129.26412849 96.8396044 131.5259102 98.66219885 133.90234375 100.35546875 C143.60803633 107.304074 150.58614613 116.23062279 152.92578125 128.21484375 C155.01825041 141.53583328 153.71093873 155.07517811 147 167 C146.443125 167.99 145.88625 168.98 145.3125 170 C134.35707657 184.2124412 119.85016236 191.8425497 102.22119141 194.59375 C96.94621475 195.25901915 91.68645635 195.47478335 86.375 195.625 C85.19462158 195.66222168 84.01424316 195.69944336 82.7980957 195.73779297 C55.19491903 196.53660464 27.59763787 195.6649181 0 195 C-1.03274664 190.76045183 -1.14059218 186.65711389 -1.12698364 182.31967163 C-1.12854363 181.55389191 -1.13010362 180.78811219 -1.13171089 179.99912703 C-1.13569428 177.43738663 -1.13254157 174.87570567 -1.12939453 172.31396484 C-1.13074973 170.47575343 -1.13253033 168.63754229 -1.13470459 166.79933167 C-1.13926418 161.80990925 -1.13749557 156.82050751 -1.1343255 151.83108473 C-1.13179507 146.61278191 -1.13414128 141.39448087 -1.13571167 136.17617798 C-1.13753104 127.41497479 -1.1351328 118.65378003 -1.13037109 109.89257812 C-1.12492553 99.75590222 -1.12669421 89.61924642 -1.1321975 79.48257101 C-1.13673119 70.78440439 -1.13737802 62.08624384 -1.13475883 53.38807642 C-1.13319791 48.19071474 -1.13299733 42.99336252 -1.13629532 37.79600143 C-1.13917785 32.91230004 -1.13719127 28.02862465 -1.13140106 23.14492607 C-1.13007567 21.34979356 -1.13046386 19.55465886 -1.13266373 17.75952721 C-1.13538377 15.31510866 -1.13198359 12.87077422 -1.12698364 10.42636108 C-1.13032973 9.35317377 -1.13032973 9.35317377 -1.13374341 8.25830591 C-1.12164273 5.22224178 -0.96863214 2.90589641 0 0 Z M38 34 C38.33 49.84 38.66 65.68 39 82 C45.3525 82.04125 51.705 82.0825 58.25 82.125 C60.2290332 82.14320801 62.20806641 82.16141602 64.24707031 82.18017578 C84.90232481 82.48582232 84.90232481 82.48582232 102.8828125 73.36328125 C107.13155997 68.79639086 109.0092828 64.44391944 108.9921875 58.1015625 C108.46988006 48.90440974 106.32149545 43.88139897 99.62109375 37.61328125 C92.1376397 33.00722086 83.83311098 32.50884568 75.25 32.3125 C73.74759766 32.26125977 73.74759766 32.26125977 72.21484375 32.20898438 C67.47578898 32.05520048 62.74190332 31.95967769 58 32 C58.33 32.66 58.66 33.32 59 34 C59.66 33.67 60.32 33.34 61 33 C61 33.66 61 34.32 61 35 C59.68 35 58.36 35 57 35 C56.67 34.34 56.34 33.68 56 33 C49.73420062 31.47175625 43.82198912 31.08900544 38 34 Z M39 111 C38.97470729 118.08413941 38.95715739 125.16826723 38.94506836 132.25244141 C38.94003026 134.66390417 38.93319966 137.07536386 38.92456055 139.48681641 C38.91247213 142.94694779 38.90676656 146.4070389 38.90234375 149.8671875 C38.89718246 150.95055389 38.89202118 152.03392029 38.88670349 153.15011597 C38.88662796 154.1510025 38.88655243 155.15188904 38.88647461 156.18310547 C38.884254 157.06690887 38.88203339 157.95071228 38.87974548 158.86129761 C38.86126056 161.05276775 38.86126056 161.05276775 40 163 C46.65279844 163.05101786 53.30554577 163.0858662 59.95849609 163.10986328 C62.2182809 163.11987519 64.4780529 163.13348872 66.73779297 163.15087891 C69.99970678 163.17533966 73.26144819 163.18653153 76.5234375 163.1953125 C77.52176605 163.20563507 78.5200946 163.21595764 79.54867554 163.22659302 C90.19027184 163.22826712 99.51831516 161.84249397 108 155 C111.2637092 151.17487293 113.62830276 147.07986224 114 142 C114.05027344 141.34386719 114.10054688 140.68773437 114.15234375 140.01171875 C114.5060744 131.8193168 112.56993546 125.12005254 107 119 C101.02900536 114.72673566 94.61309479 112.59759906 87.359375 111.83203125 C86.63126114 111.75119293 85.90314728 111.67035461 85.15296936 111.58706665 C75.92913337 110.66286433 66.69583498 110.78346157 57.4375 110.875 C55.63607278 110.88506656 53.83464 110.89418581 52.03320312 110.90234375 C47.68866082 110.92402781 43.34439483 110.95834713 39 111 Z " fill="#001F4C" transform="translate(384,324)"/>
<path d="M0 0 C0.33 0.99 0.66 1.98 1 3 C2.11705322 2.99111755 3.23410645 2.98223511 4.38500977 2.9730835 C14.97559229 2.89156285 25.56611013 2.83182757 36.15693665 2.79275131 C41.60020144 2.77198562 47.04321047 2.74387213 52.48632812 2.69824219 C57.75131704 2.6543879 63.01606184 2.63078033 68.28121948 2.62049103 C70.27761674 2.61317003 72.2740025 2.59887666 74.27029419 2.57707977 C94.40135932 2.36626297 114.41379165 5.01611214 130 19 C130.69996094 19.61875 131.39992188 20.2375 132.12109375 20.875 C144.08514158 32.09270836 148.98208864 46.73444629 149.94091797 62.80810547 C150.36692242 78.61251849 145.33989625 93.00417996 135 105 C127.94657718 112.36564677 119.32943968 117.11749144 110 121 C117.76691104 135.79289964 125.89539541 150.39047156 134 165 C134.33761353 165.60886047 134.67522705 166.21772095 135.02307129 166.84503174 C137.26026318 170.8787155 139.50353809 174.90896881 141.75 178.9375 C142.32186035 179.96665527 142.8937207 180.99581055 143.48291016 182.05615234 C146.75899282 187.92043425 146.75899282 187.92043425 150.390625 193.56640625 C152 196 152 196 152 198 C144.6092191 199.17747947 137.26392072 199.40139626 129.79296875 199.51489258 C128.17701354 199.54670914 126.5612977 199.59464566 124.94628906 199.65844727 C111.68664457 200.17350242 111.68664457 200.17350242 108.05883789 197.64941406 C106.68043241 195.50403147 105.88504872 193.39255175 105 191 C103.83933799 188.85462194 102.65351894 186.72275188 101.44921875 184.6015625 C100.51169206 182.8678744 99.57421204 181.13415571 98.64135742 179.39794922 C97.67673245 177.60498619 96.70477602 175.81612454 95.73242188 174.02734375 C95.12333984 172.89683594 94.51425781 171.76632812 93.88671875 170.6015625 C93.05466919 169.05976318 93.05466919 169.05976318 92.20581055 167.48681641 C91 165 91 165 91 163 C90.34 162.67 89.68 162.34 89 162 C87.94647157 159.69034152 86.94280904 157.3570226 86 155 C85.34 155.33 84.68 155.66 84 156 C83.89115479 155.12585449 83.78230957 154.25170898 83.67016602 153.35107422 C82.98199372 149.90996204 81.92385609 147.46785667 80.27734375 144.3828125 C79.55019165 143.00440186 79.55019165 143.00440186 78.80834961 141.59814453 C78.19096924 140.45200684 77.57358887 139.30586914 76.9375 138.125 C74.978125 134.45375 73.01875 130.7825 71 127 C60.44 127 49.88 127 39 127 C39 150.43 39 173.86 39 198 C34.18049165 198.80325139 29.81220344 199.13267336 24.9765625 199.09765625 C24.23038666 199.0962413 23.48421082 199.09482635 22.71542358 199.09336853 C20.35190682 199.08780874 17.98848773 199.07526389 15.625 199.0625 C14.01432429 199.0574798 12.40364709 199.0529178 10.79296875 199.04882812 C6.86194201 199.03785251 2.93098752 199.02061596 -1 199 C-2.24546405 196.50907189 -1.7767578 195.58919267 -1 193 C-1.66 192.67 -2.32 192.34 -3 192 C-2.34 192 -1.68 192 -1 192 C-1.10630564 190.98069822 -1.10630564 190.98069822 -1.21475887 189.94080448 C-2.03786599 181.25556918 -2.1355594 172.62041042 -2.11352539 163.90600586 C-2.11324268 162.32291669 -2.11340289 160.73982738 -2.1139679 159.15673828 C-2.11425267 154.89497496 -2.10840727 150.63324028 -2.10139394 146.37148356 C-2.09510377 141.90061641 -2.09455204 137.42974846 -2.09336853 132.95887756 C-2.09027062 124.50551188 -2.08207922 116.05215925 -2.07201904 107.59879929 C-2.06082148 97.98047409 -2.05533638 88.36214826 -2.05032361 78.74381816 C-2.04032183 59.77921217 -2.02386542 40.81461714 -2.00279331 21.85002041 C-1.9998897 18.88746131 -2.00160862 15.93065059 -2.0703125 12.96875 C-2.08835937 11.8240625 -2.10640625 10.679375 -2.125 9.5 C-2.14820313 8.3553125 -2.17140625 7.210625 -2.1953125 6.03125 C-2 3 -2 3 0 0 Z M39 36 C38.08335744 55.43862248 37.63881278 74.57877517 39 94 C42.08124839 94.89923696 44.8379383 95.12868724 48.04296875 95.1328125 C49.51817993 95.13607544 49.51817993 95.13607544 51.02319336 95.1394043 C52.58952515 95.13227417 52.58952515 95.13227417 54.1875 95.125 C55.25943604 95.12089111 56.33137207 95.11678223 57.43579102 95.11254883 C80.68020574 95.80734921 80.68020574 95.80734921 100.59375 85.46875 C107.51596446 78.00361676 108.33393235 71.29221498 108.30078125 61.26953125 C108.00768721 58.08356092 107.3076057 55.89076048 106 53 C105.690625 51.576875 105.690625 51.576875 105.375 50.125 C102.90878247 44.51996016 97.90374431 40.64925965 92.375 38.125 C85.8262101 35.94207003 79.61778939 35.86450605 72.7890625 35.90234375 C71.33685806 35.90446617 71.33685806 35.90446617 69.85531616 35.90663147 C66.77851201 35.91220635 63.70178197 35.92475423 60.625 35.9375 C58.53255314 35.94251825 56.44010513 35.94708059 54.34765625 35.95117188 C49.2317425 35.96216755 44.11588379 35.97941485 39 36 Z " fill="#011F4B" transform="translate(727,321)"/>
<path d="M0 0 C10.72146062 10.03898571 16.11113795 23.31742424 16.8359375 37.8515625 C16.74176461 49.99986484 13.64438732 61.50561154 5.26953125 70.65234375 C1.62437473 73.97444356 -2.23095039 76.93714822 -6.1875 79.875 C-5.40246094 80.37128906 -4.61742187 80.86757813 -3.80859375 81.37890625 C4.59776077 86.81467169 11.73206321 92.13664872 16.8125 100.875 C16.8125 101.535 16.8125 102.195 16.8125 102.875 C17.4725 103.205 18.1325 103.535 18.8125 103.875 C23.64722056 118.82271402 23.65706802 135.98967433 17.23046875 150.4296875 C9.04452862 166.15953325 -2.98973698 175.25632755 -19.55859375 180.76171875 C-23.75823525 182.05009101 -27.83944701 183.23606855 -32.1875 183.875 C-32.92484375 183.98457031 -33.6621875 184.09414063 -34.421875 184.20703125 C-57.81978632 187.07442234 -81.19890612 183.85586256 -100.65234375 170.13671875 C-110.57287205 162.21725428 -116.09182659 150.01975669 -118.875 137.875 C-119.29253171 133.86669557 -119.26801507 129.90075349 -119.1875 125.875 C-107.99000211 122.38968609 -96.69772475 120.05198416 -85.1875 117.875 C-85.01734375 118.865 -84.8471875 119.855 -84.671875 120.875 C-82.88227511 130.8147046 -81.1350378 138.92090442 -73.1875 145.875 C-72.56875 146.431875 -71.95 146.98875 -71.3125 147.5625 C-68.39360856 149.36534471 -65.51127265 150.04405684 -62.1875 150.875 C-61.011875 151.24625 -59.83625 151.6175 -58.625 152 C-48.58801413 154.43144037 -36.38825983 153.91727765 -27.24609375 148.78515625 C-25.86765417 147.85180318 -24.52336329 146.86833424 -23.1875 145.875 C-22.5275 145.875 -21.8675 145.875 -21.1875 145.875 C-20.919375 145.33875 -20.65125 144.8025 -20.375 144.25 C-19.48324572 142.46649144 -18.56141916 140.69796802 -17.625 138.9375 C-14.15649722 131.54808102 -13.8461136 121.98539059 -15.90625 114.13671875 C-18.6324991 107.59591949 -22.83131527 103.08050545 -29.13574219 99.71386719 C-37.24157697 96.39977291 -46.2154215 96.63802055 -54.8125 96.8125 C-56.95045644 96.84673774 -59.08848306 96.87692228 -61.2265625 96.90234375 C-62.62189209 96.92929321 -62.62189209 96.92929321 -64.04541016 96.95678711 C-66.1875 96.875 -66.1875 96.875 -67.1875 95.875 C-67.27533542 93.65644736 -67.29444609 91.43511504 -67.28515625 89.21484375 C-67.2837413 88.55037735 -67.28232635 87.88591095 -67.28086853 87.2013092 C-67.27525518 85.07166101 -67.26270054 82.94211661 -67.25 80.8125 C-67.24498671 79.37174631 -67.24042351 77.93099097 -67.23632812 76.49023438 C-67.22528145 72.95178898 -67.20800792 69.41340461 -67.1875 65.875 C-66.07677124 65.845271 -66.07677124 65.845271 -64.94360352 65.81494141 C-61.54541589 65.71890394 -58.1477779 65.60954684 -54.75 65.5 C-53.58533203 65.4690625 -52.42066406 65.438125 -51.22070312 65.40625 C-40.53908116 65.04518109 -31.7397615 64.58149099 -23.9375 56.5625 C-19.85916294 50.29933952 -19.22648355 43.16270806 -20.1875 35.875 C-22.34428429 29.17356309 -25.93960628 23.34859963 -32.1875 19.875 C-43.35279042 15.56300091 -56.11598659 15.09002404 -67.1875 19.875 C-69.29951409 21.10005599 -71.20682177 22.43900829 -73.1875 23.875 C-73.8475 23.875 -74.5075 23.875 -75.1875 23.875 C-75.435 24.535 -75.6825 25.195 -75.9375 25.875 C-77.1875 28.875 -77.1875 28.875 -78.140625 30.6015625 C-81.22053244 36.18676779 -82.26242708 41.60491403 -83.1875 47.875 C-90.98457888 47.29045944 -98.61644629 46.24362811 -106.3125 44.875 C-107.35148438 44.69710937 -108.39046875 44.51921875 -109.4609375 44.3359375 C-117.05925099 43.00324901 -117.05925099 43.00324901 -118.1875 41.875 C-118.07633962 26.56265823 -112.14376757 13.21817281 -101.6640625 2.16015625 C-75.79681317 -21.70788927 -27.04197403 -21.66520726 0 0 Z " fill="#0C79DA" transform="translate(676.1875,337.125)"/>
<path d="M0 0 C0 22.11 0 44.22 0 67 C0.66 65.68 1.32 64.36 2 63 C13.02316636 53.18455107 27.87415386 48.36570636 42.53515625 48.81640625 C56.5381736 49.85942022 68.119344 52.86319631 79 62 C80.010625 62.7425 81.02125 63.485 82.0625 64.25 C94.732026 75.09483884 99.03684582 92.81408581 100.6875 108.6875 C100.81078165 110.45710533 100.91549899 112.22811937 101 114 C101.04125 114.83402344 101.0825 115.66804687 101.125 116.52734375 C101.62823554 137.44307087 97.14763814 160.20412152 82.3828125 175.8671875 C68.8876215 187.94648961 51.91323787 191.97532031 34.19628906 191.18798828 C22.73955818 190.20736547 10.80863203 186.72729462 3 178 C2.01 177.01 2.01 177.01 1 176 C0.34 178.31 -0.32 180.62 -1 183 C-0.34 183.33 0.32 183.66 1 184 C0.34 184 -0.32 184 -1 184 C-0.67 184.99 -0.34 185.98 0 187 C-8.22906615 187.67968688 -16.43005215 188.12002341 -24.6875 188.1875 C-25.45304199 188.20039062 -26.21858398 188.21328125 -27.00732422 188.2265625 C-30.82297864 188.23336251 -33.76873267 188.15702015 -37 186 C-36.01 186 -35.02 186 -34 186 C-34 124.62 -34 63.24 -34 0 C-5 -1 -5 -1 0 0 Z M10 85 C1.16856935 95.74833033 -0.50156252 107.07299887 -0.3125 120.625 C-0.31572266 121.78773438 -0.31894531 122.95046875 -0.32226562 124.1484375 C-0.2525989 135.34577964 1.09954127 146.39297373 8.859375 155.08203125 C16.42687779 162.04824021 24.44054046 164.31957986 34.640625 164.1484375 C43.75352364 163.57510944 50.94704712 160.51037474 57.25 153.8125 C66.37785178 142.32827344 66.90120704 126.49940179 65.8046875 112.5078125 C64.50639982 101.40954682 61.25366088 90.92539028 53 83 C39.89436955 74.41990756 21.91462301 74.1289936 10 85 Z " fill="#011F4B" transform="translate(621,553)"/>
<path d="M0 0 C16.54261397 -0.39982149 33.30779293 1.7223459 46.23828125 12.88671875 C56.07672951 22.79433009 59.57392515 33.56467241 59.66625977 47.22631836 C59.67615936 48.13424637 59.68605896 49.04217438 59.69625854 49.97761536 C59.72779423 52.97333186 59.75260975 55.969064 59.77734375 58.96484375 C59.79793015 61.05083106 59.81892705 63.13681435 59.84031677 65.22279358 C59.89547209 70.71296863 59.94488945 76.20318114 59.99316406 81.69342041 C60.04328739 87.27156024 60.09910392 92.84964284 60.15429688 98.42773438 C60.23404716 106.58322646 60.31196699 114.73873198 60.38500977 122.89428711 C60.39278946 123.74382965 60.40056915 124.59337219 60.40858459 125.46865845 C60.44571035 129.68760924 60.46920054 133.90582986 60.4609375 138.125 C57.51477212 139.59808269 54.98331156 139.12794692 51.703125 139.00390625 C51.04007355 138.98029526 50.37702209 138.95668427 49.69387817 138.93235779 C47.57434621 138.85573184 45.45518065 138.77170357 43.3359375 138.6875 C41.89975756 138.63427819 40.4635597 138.5815378 39.02734375 138.52929688 C35.50498314 138.40011856 31.98291398 138.2642997 28.4609375 138.125 C28.1309375 139.115 27.8009375 140.105 27.4609375 141.125 C26.17646831 138.55606162 26.13116606 136.35923663 25.8984375 133.5 C25.81464844 132.49710938 25.73085938 131.49421875 25.64453125 130.4609375 C25.58394531 129.69007813 25.52335938 128.91921875 25.4609375 128.125 C24.5121875 129.011875 23.5634375 129.89875 22.5859375 130.8125 C11.87078351 139.93544236 -1.15179272 142.69572418 -14.9140625 142.5625 C-16.56051758 142.55114014 -16.56051758 142.55114014 -18.24023438 142.53955078 C-31.35952995 142.27288261 -42.00676379 139.25378271 -51.7265625 130.0546875 C-60.79409634 120.48710584 -62.96149612 110.99157704 -62.75 98.17578125 C-62.37925441 88.28236657 -58.45848606 80.27868182 -51.65234375 73.1484375 C-47.3160814 69.14442315 -42.91673143 66.52574506 -37.5390625 64.125 C-37.5390625 63.465 -37.5390625 62.805 -37.5390625 62.125 C-36.2809375 62.00125 -35.0228125 61.8775 -33.7265625 61.75 C-29.33160514 61.26854927 -25.03444508 60.50501424 -20.703125 59.625 C-9.98884599 57.93187937 0.84880361 57.83616729 11.66967773 57.57275391 C13.73694163 57.52117287 15.8039939 57.46398131 17.87109375 57.40625 C19.08933838 57.37595703 20.30758301 57.34566406 21.56274414 57.31445312 C24.39986253 57.31716978 24.39986253 57.31716978 26.4609375 56.125 C26.23122552 53.58003311 25.97795341 51.0411014 25.7109375 48.5 C25.6490625 47.78714844 25.5871875 47.07429687 25.5234375 46.33984375 C24.90126758 40.68846697 23.27968291 36.46327744 18.7421875 32.69921875 C10.01851142 28.35651158 0.65870271 28.26012231 -8.5390625 31.125 C-9.5084375 31.393125 -10.4778125 31.66125 -11.4765625 31.9375 C-14.28761585 33.55598526 -14.61390093 35.06485021 -15.5390625 38.125 C-15.8896875 38.90875 -16.2403125 39.6925 -16.6015625 40.5 C-17.7369211 43.67900408 -18.09721814 46.78575145 -18.5390625 50.125 C-19.94091797 49.94324219 -19.94091797 49.94324219 -21.37109375 49.7578125 C-32.0781173 48.38632005 -42.80072295 47.22217817 -53.5390625 46.125 C-55.60562133 39.21479666 -52.26858502 30.80494978 -49.28515625 24.45703125 C-41.72989001 12.29542035 -29.96540022 5.07949969 -16.32421875 1.68359375 C-10.89892558 0.59549147 -5.51464539 0.27149023 0 0 Z M-24.1640625 89.25 C-27.30963816 93.49880654 -27.89812024 97.93118798 -27.5390625 103.125 C-26.7017991 106.95456999 -25.06098467 109.5732537 -22.3515625 112.4375 C-14.20637809 117.32461065 -3.84681796 117.2340559 5.3046875 115.625 C13.80500219 113.31627255 20.05600526 109.78429078 24.55078125 102.08984375 C26.64370473 97.57164413 26.58382831 93.28988297 26.5234375 88.375 C26.51892578 87.67761719 26.51441406 86.98023438 26.50976562 86.26171875 C26.4980377 84.54944197 26.48010403 82.83720967 26.4609375 81.125 C-0.61245514 79.19613716 -0.61245514 79.19613716 -24.1640625 89.25 Z " fill="#011F4B" transform="translate(500.5390625,601.875)"/>
<path d="M0 0 C0 52.14 0 104.28 0 158 C14.49047169 158.91250245 14.49047169 158.91250245 28 156 C28 156.66 28 157.32 28 158 C45.49 157.67 62.98 157.34 81 157 C83.16008848 161.32017697 82.18496248 167.12983359 82.1875 171.875 C82.19974609 173.07253906 82.21199219 174.27007813 82.22460938 175.50390625 C82.22654297 176.65503906 82.22847656 177.80617188 82.23046875 178.9921875 C82.23457764 180.04776855 82.23868652 181.10334961 82.24291992 182.19091797 C81.99763805 185.02731311 81.32956419 186.53690411 80 189 C79.00219513 188.99777939 78.00439026 188.99555878 76.97634888 188.99327087 C67.58807343 188.9730281 58.19980238 188.95802236 48.81151009 188.94818783 C43.98451963 188.9429619 39.15754675 188.93586948 34.33056641 188.92456055 C29.67514752 188.9137214 25.01974556 188.90772097 20.36431503 188.90512276 C18.58525196 188.90327037 16.80618984 188.8996533 15.02713394 188.89426994 C12.54166893 188.88704591 10.05627454 188.88600964 7.57080078 188.88647461 C6.82993225 188.88287933 6.08906372 188.87928406 5.32574463 188.87557983 C1.53707956 188.81994805 1.53707956 188.81994805 -2 190 C-2 189.34 -2 188.68 -2 188 C-4.1464753 188.11344376 -6.29220592 188.24106345 -8.4375 188.375 C-10.22994141 188.47941406 -10.22994141 188.47941406 -12.05859375 188.5859375 C-13.02925781 188.72257813 -13.99992187 188.85921875 -15 189 C-15.33 189.66 -15.66 190.32 -16 191 C-16.66 190.34 -17.32 189.68 -18 189 C-24.27 189 -30.54 189 -37 189 C-37 126.96 -37 64.92 -37 1 C-25.29530009 -2.90156664 -12.33783702 0 0 0 Z " fill="#011F4B" transform="translate(345,552)"/>
<path d="M0 0 C0.33 0 0.66 0 1 0 C1 4.62 1 9.24 1 14 C0.67 14 0.34 14 0 14 C0 9.38 0 4.76 0 0 Z " fill="#11315B" transform="translate(585,683)"/>
<path d="M0 0 C0.99 0.495 0.99 0.495 2 1 C2 3.31 2 5.62 2 8 C1.67 8 1.34 8 1 8 C0.67 5.36 0.34 2.72 0 0 Z " fill="#12335E" transform="translate(584,617)"/>
<path d="M0 0 C0.33 0 0.66 0 1 0 C1 2.31 1 4.62 1 7 C0.67 7 0.34 7 0 7 C0 4.69 0 2.38 0 0 Z " fill="#13305A" transform="translate(585,714)"/>
<path d="M0 0 C0.33 0 0.66 0 1 0 C1 2.31 1 4.62 1 7 C0.67 7 0.34 7 0 7 C0 4.69 0 2.38 0 0 Z " fill="#11325C" transform="translate(585,674)"/>
<path d="M0 0 C0.66 0.99 1.32 1.98 2 3 C1.01 3.33 0.02 3.66 -1 4 C-0.67 2.68 -0.34 1.36 0 0 Z " fill="#13315B" transform="translate(809,471)"/>
<path d="M0 0 C2.31 0 4.62 0 7 0 C7 0.33 7 0.66 7 1 C4.69 1 2.38 1 0 1 C0 0.67 0 0.34 0 0 Z " fill="#11325F" transform="translate(463,358)"/>
<path d="M0 0 C0.33 0 0.66 0 1 0 C1 1.98 1 3.96 1 6 C0.67 6 0.34 6 0 6 C0 4.02 0 2.04 0 0 Z " fill="#11305A" transform="translate(585,705)"/>
<path d="M0 0 C0.33 0 0.66 0 1 0 C1 1.98 1 3.96 1 6 C0.67 6 0.34 6 0 6 C0 4.02 0 2.04 0 0 Z " fill="#11325D" transform="translate(585,643)"/>
<path d="M0 0 C0.33 0 0.66 0 1 0 C1 1.98 1 3.96 1 6 C0.67 6 0.34 6 0 6 C0 4.02 0 2.04 0 0 Z " fill="#12325C" transform="translate(585,627)"/>
<path d="M0 0 C0.66 1.32 1.32 2.64 2 4 C1.34 4 0.68 4 0 4 C0 2.68 0 1.36 0 0 Z " fill="#102D58" transform="translate(208,455)"/>
<path d="M0 0 C0.33 0 0.66 0 1 0 C1 1.65 1 3.3 1 5 C0.67 5 0.34 5 0 5 C0 3.35 0 1.7 0 0 Z " fill="#133059" transform="translate(585,724)"/>
<path d="M0 0 C0.99 0.33 1.98 0.66 3 1 C2.67 1.66 2.34 2.32 2 3 C1.34 2.67 0.68 2.34 0 2 C0 1.34 0 0.68 0 0 Z " fill="#0F305D" transform="translate(473,437)"/>
<path d="M0 0 C1.65 0 3.3 0 5 0 C5 0.33 5 0.66 5 1 C3.35 1 1.7 1 0 1 C0 0.67 0 0.34 0 0 Z " fill="#11305C" transform="translate(800,358)"/>
<path d="M0 0 C1 4 1 4 1 4 Z " fill="#12315A" transform="translate(585,698)"/>
<path d="M0 0 C1 4 1 4 1 4 Z " fill="#12325D" transform="translate(585,667)"/>
<path d="M0 0 C1 4 1 4 1 4 Z " fill="#12335E" transform="translate(585,611)"/>
<path d="M0 0 C0 3 0 3 0 3 Z " fill="#234C7C" transform="translate(585,553)"/>
<path d="M0 0 C0 3 0 3 0 3 Z " fill="#237BCB" transform="translate(562,491)"/>
<path d="M0 0 C0.99 0.33 1.98 0.66 3 1 C2.01 1 1.02 1 0 1 C0 0.67 0 0.34 0 0 Z " fill="#10315D" transform="translate(806,358)"/>
<path d="M0 0 C3 1 3 1 3 1 Z " fill="#1A3358" transform="translate(644,743)"/>
<path d="M0 0 C0.33 0.66 0.66 1.32 1 2 C0.34 1.67 -0.32 1.34 -1 1 C-0.67 0.67 -0.34 0.34 0 0 Z " fill="#1A345B" transform="translate(551,741)"/>
<path d="M0 0 C0.66 0.66 1.32 1.32 2 2 C1.34 2 0.68 2 0 2 C0 1.34 0 0.68 0 0 Z " fill="#1B345A" transform="translate(547,741)"/>
<path d="M0 0 C0.99 0.495 0.99 0.495 2 1 C1.01 1.495 1.01 1.495 0 2 C0 1.34 0 0.68 0 0 Z " fill="#1B345B" transform="translate(406,742)"/>
<path d="M0 0 C0.33 0.66 0.66 1.32 1 2 C0.34 1.67 -0.32 1.34 -1 1 C-0.67 0.67 -0.34 0.34 0 0 Z " fill="#1A355C" transform="translate(391,741)"/>
<path d="M0 0 C0.99 0.495 0.99 0.495 2 1 C1.01 1.495 1.01 1.495 0 2 C0 1.34 0 0.68 0 0 Z " fill="#1B355A" transform="translate(361,741)"/>
<path d="" fill="#163259" transform="translate(0,0)"/>
<path d="" fill="#1B3558" transform="translate(0,0)"/>
<path d="" fill="#183259" transform="translate(0,0)"/>
<path d="" fill="#13335F" transform="translate(0,0)"/>
<path d="" fill="#11305C" transform="translate(0,0)"/>
<path d="M0 0 C3 1 3 1 3 1 Z " fill="#12305D" transform="translate(653,631)"/>
<path d="" fill="#11325D" transform="translate(0,0)"/>
<path d="" fill="#143562" transform="translate(0,0)"/>
<path d="" fill="#163561" transform="translate(0,0)"/>
<path d="" fill="#183965" transform="translate(0,0)"/>
<path d="M0 0 C3 1 3 1 3 1 Z " fill="#227ECF" transform="translate(653,519)"/>
<path d="M0 0 C3 1 3 1 3 1 Z " fill="#217DCE" transform="translate(596,519)"/>
<path d="M0 0 C3 1 3 1 3 1 Z " fill="#2085D8" transform="translate(576,456)"/>
<path d="M0 0 C3 1 3 1 3 1 Z " fill="#1F3962" transform="translate(398,322)"/>
<path d="" fill="#1E3358" transform="translate(0,0)"/>
<path d="M0 0 C2 1 2 1 2 1 Z " fill="#1A345A" transform="translate(414,742)"/>
<path d="" fill="#1B355A" transform="translate(0,0)"/>
<path d="M0 0 C2 1 2 1 2 1 Z " fill="#1A355B" transform="translate(345,742)"/>
<path d="" fill="#1C345D" transform="translate(0,0)"/>
<path d="M0 0 C2 1 2 1 2 1 Z " fill="#1D355A" transform="translate(608,741)"/>
<path d="M0 0 C2 1 2 1 2 1 Z " fill="#1A3257" transform="translate(553,741)"/>
<path d="M0 0 C2 1 2 1 2 1 Z " fill="#193257" transform="translate(537,741)"/>
<path d="M0 0 C2 1 2 1 2 1 Z " fill="#1B365A" transform="translate(416,741)"/>
<path d="" fill="#163058" transform="translate(0,0)"/>
<path d="M0 0 C2 1 2 1 2 1 Z " fill="#15335A" transform="translate(478,712)"/>
<path d="" fill="#15335B" transform="translate(0,0)"/>
<path d="" fill="#132F5B" transform="translate(0,0)"/>
<path d="M0 0 C2 1 2 1 2 1 Z " fill="#13325C" transform="translate(497,685)"/>
<path d="" fill="#193359" transform="translate(0,0)"/>
<path d="" fill="#12315B" transform="translate(0,0)"/>
<path d="" fill="#17335D" transform="translate(0,0)"/>
<path d="" fill="#13335C" transform="translate(0,0)"/>
<path d="M0 0 C2 1 2 1 2 1 Z " fill="#11305E" transform="translate(518,658)"/>
<path d="" fill="#13325C" transform="translate(0,0)"/>
<path d="" fill="#193359" transform="translate(0,0)"/>
<path d="" fill="#1B3359" transform="translate(0,0)"/>
<path d="" fill="#193459" transform="translate(0,0)"/>
<path d="" fill="#19345A" transform="translate(0,0)"/>
<path d="" fill="#14335E" transform="translate(0,0)"/>
<path d="M0 0 C2 1 2 1 2 1 Z " fill="#163963" transform="translate(651,601)"/>
<path d="" fill="#133462" transform="translate(0,0)"/>
<path d="" fill="#183966" transform="translate(0,0)"/>
<path d="" fill="#15345B" transform="translate(0,0)"/>
<path d="M0 0 C2 1 2 1 2 1 Z " fill="#13325D" transform="translate(816,487)"/>
<path d="" fill="#2577C7" transform="translate(0,0)"/>
<path d="" fill="#19385E" transform="translate(0,0)"/>
<path d="" fill="#19365C" transform="translate(0,0)"/>
<path d="" fill="#11315C" transform="translate(0,0)"/>
<path d="" fill="#0F2E57" transform="translate(0,0)"/>
<path d="" fill="#11325D" transform="translate(0,0)"/>
<path d="" fill="#1A8AE0" transform="translate(0,0)"/>
<path d="" fill="#1E82D3" transform="translate(0,0)"/>
<path d="M0 0 C2 1 2 1 2 1 Z " fill="#1C84DC" transform="translate(642,436)"/>
<path d="" fill="#0E2E5A" transform="translate(0,0)"/>
<path d="" fill="#0F315E" transform="translate(0,0)"/>
<path d="" fill="#10305D" transform="translate(0,0)"/>
<path d="" fill="#0F2E5A" transform="translate(0,0)"/>
<path d="" fill="#11325F" transform="translate(0,0)"/>
<path d="" fill="#2778C3" transform="translate(0,0)"/>
<path d="" fill="#16345C" transform="translate(0,0)"/>
<path d="M0 0 C2 1 2 1 2 1 Z " fill="#123360" transform="translate(484,367)"/>
<path d="" fill="#11315E" transform="translate(0,0)"/>
<path d="M0 0 C2 1 2 1 2 1 Z " fill="#12325D" transform="translate(812,359)"/>
<path d="M0 0 C2 1 2 1 2 1 Z " fill="#11325F" transform="translate(791,358)"/>
<path d="M0 0 C2 1 2 1 2 1 Z " fill="#10325E" transform="translate(783,358)"/>
<path d="M0 0 C2 1 2 1 2 1 Z " fill="#11335F" transform="translate(776,358)"/>
<path d="M0 0 C2 1 2 1 2 1 Z " fill="#0F315F" transform="translate(425,358)"/>
<path d="M0 0 C2 1 2 1 2 1 Z " fill="#1B3762" transform="translate(791,322)"/>
<path d="M0 0 C2 1 2 1 2 1 Z " fill="#1D3A64" transform="translate(422,322)"/>
<path d="M0 0 C2 1 2 1 2 1 Z " fill="#1E3A64" transform="translate(405,322)"/>
<path d="" fill="#243F62" transform="translate(0,0)"/>
<path d="" fill="#1F355B" transform="translate(0,0)"/>
<path d="" fill="#1B355B" transform="translate(0,0)"/>
<path d="" fill="#19335A" transform="translate(0,0)"/>
<path d="" fill="#1A3459" transform="translate(0,0)"/>
<path d="" fill="#203558" transform="translate(0,0)"/>
<path d="" fill="#1E3759" transform="translate(0,0)"/>
<path d="" fill="#1B3657" transform="translate(0,0)"/>
<path d="" fill="#193157" transform="translate(0,0)"/>
<path d="" fill="#193357" transform="translate(0,0)"/>
<path d="" fill="#1A3357" transform="translate(0,0)"/>
<path d="" fill="#1B335B" transform="translate(0,0)"/>
<path d="" fill="#1C3559" transform="translate(0,0)"/>
<path d="" fill="#1B335B" transform="translate(0,0)"/>
<path d="" fill="#1B3559" transform="translate(0,0)"/>
<path d="" fill="#1A355A" transform="translate(0,0)"/>
<path d="" fill="#1A3256" transform="translate(0,0)"/>
<path d="" fill="#1C3056" transform="translate(0,0)"/>
<path d="" fill="#1D3359" transform="translate(0,0)"/>
<path d="" fill="#1A3358" transform="translate(0,0)"/>
<path d="" fill="#1C365E" transform="translate(0,0)"/>
<path d="" fill="#1C365D" transform="translate(0,0)"/>
<path d="" fill="#1E365E" transform="translate(0,0)"/>
<path d="" fill="#19355C" transform="translate(0,0)"/>
<path d="" fill="#1C365B" transform="translate(0,0)"/>
<path d="" fill="#1B365C" transform="translate(0,0)"/>
<path d="" fill="#1C375C" transform="translate(0,0)"/>
<path d="" fill="#1C365B" transform="translate(0,0)"/>
<path d="" fill="#1C345A" transform="translate(0,0)"/>
<path d="" fill="#1B365E" transform="translate(0,0)"/>
<path d="" fill="#1B365C" transform="translate(0,0)"/>
<path d="" fill="#1E375E" transform="translate(0,0)"/>
<path d="" fill="#1D375B" transform="translate(0,0)"/>
<path d="" fill="#1F395B" transform="translate(0,0)"/>
<path d="" fill="#1F3557" transform="translate(0,0)"/>
<path d="" fill="#1B3356" transform="translate(0,0)"/>
<path d="" fill="#1A3559" transform="translate(0,0)"/>
<path d="" fill="#233759" transform="translate(0,0)"/>
<path d="" fill="#243758" transform="translate(0,0)"/>
<path d="" fill="#203457" transform="translate(0,0)"/>
<path d="" fill="#213959" transform="translate(0,0)"/>
<path d="" fill="#193256" transform="translate(0,0)"/>
<path d="" fill="#203658" transform="translate(0,0)"/>
<path d="" fill="#162D55" transform="translate(0,0)"/>
<path d="" fill="#19345F" transform="translate(0,0)"/>
<path d="" fill="#18335B" transform="translate(0,0)"/>
<path d="" fill="#13305A" transform="translate(0,0)"/>
<path d="" fill="#153460" transform="translate(0,0)"/>
<path d="" fill="#15335A" transform="translate(0,0)"/>
<path d="" fill="#1A3457" transform="translate(0,0)"/>
<path d="" fill="#18335E" transform="translate(0,0)"/>
<path d="" fill="#16355D" transform="translate(0,0)"/>
<path d="" fill="#1C3659" transform="translate(0,0)"/>
<path d="" fill="#16315A" transform="translate(0,0)"/>
<path d="" fill="#13315A" transform="translate(0,0)"/>
<path d="" fill="#123461" transform="translate(0,0)"/>
<path d="" fill="#193457" transform="translate(0,0)"/>
<path d="" fill="#10305B" transform="translate(0,0)"/>
<path d="" fill="#1C375E" transform="translate(0,0)"/>
<path d="" fill="#1B375F" transform="translate(0,0)"/>
<path d="" fill="#19365E" transform="translate(0,0)"/>
<path d="" fill="#17355E" transform="translate(0,0)"/>
<path d="" fill="#17345C" transform="translate(0,0)"/>
<path d="" fill="#1B345A" transform="translate(0,0)"/>
<path d="" fill="#14325D" transform="translate(0,0)"/>
<path d="" fill="#16345D" transform="translate(0,0)"/>
<path d="" fill="#1C385E" transform="translate(0,0)"/>
<path d="" fill="#132E5B" transform="translate(0,0)"/>
<path d="" fill="#19345B" transform="translate(0,0)"/>
<path d="" fill="#1A355A" transform="translate(0,0)"/>
<path d="" fill="#14335D" transform="translate(0,0)"/>
<path d="" fill="#193459" transform="translate(0,0)"/>
<path d="" fill="#1A365B" transform="translate(0,0)"/>
<path d="" fill="#123359" transform="translate(0,0)"/>
<path d="" fill="#13325C" transform="translate(0,0)"/>
<path d="" fill="#122F5B" transform="translate(0,0)"/>
<path d="" fill="#13315A" transform="translate(0,0)"/>
<path d="" fill="#1C3659" transform="translate(0,0)"/>
<path d="" fill="#1A3358" transform="translate(0,0)"/>
<path d="" fill="#17335A" transform="translate(0,0)"/>
<path d="" fill="#193359" transform="translate(0,0)"/>
<path d="" fill="#10305B" transform="translate(0,0)"/>
<path d="" fill="#17365C" transform="translate(0,0)"/>
<path d="" fill="#17375C" transform="translate(0,0)"/>
<path d="" fill="#163259" transform="translate(0,0)"/>
<path d="" fill="#18325C" transform="translate(0,0)"/>
<path d="" fill="#17335C" transform="translate(0,0)"/>
<path d="" fill="#1A335A" transform="translate(0,0)"/>
<path d="" fill="#17345E" transform="translate(0,0)"/>
<path d="" fill="#102F5B" transform="translate(0,0)"/>
<path d="" fill="#14345D" transform="translate(0,0)"/>
<path d="" fill="#0F305C" transform="translate(0,0)"/>
<path d="" fill="#13325E" transform="translate(0,0)"/>
<path d="" fill="#15335B" transform="translate(0,0)"/>
<path d="" fill="#14325A" transform="translate(0,0)"/>
<path d="" fill="#153156" transform="translate(0,0)"/>
<path d="" fill="#1B335B" transform="translate(0,0)"/>
<path d="" fill="#14325C" transform="translate(0,0)"/>
<path d="" fill="#1A395F" transform="translate(0,0)"/>
<path d="" fill="#163059" transform="translate(0,0)"/>
<path d="" fill="#1F365B" transform="translate(0,0)"/>
<path d="" fill="#13345B" transform="translate(0,0)"/>
<path d="" fill="#15335D" transform="translate(0,0)"/>
<path d="" fill="#143159" transform="translate(0,0)"/>
<path d="" fill="#17335A" transform="translate(0,0)"/>
<path d="" fill="#12325F" transform="translate(0,0)"/>
<path d="" fill="#15345E" transform="translate(0,0)"/>
<path d="" fill="#1A385F" transform="translate(0,0)"/>
<path d="" fill="#17355E" transform="translate(0,0)"/>
<path d="" fill="#193760" transform="translate(0,0)"/>
<path d="" fill="#17375F" transform="translate(0,0)"/>
<path d="" fill="#1A3558" transform="translate(0,0)"/>
<path d="" fill="#17375F" transform="translate(0,0)"/>
<path d="" fill="#13325E" transform="translate(0,0)"/>
<path d="" fill="#1B345A" transform="translate(0,0)"/>
<path d="" fill="#15355D" transform="translate(0,0)"/>
<path d="" fill="#173862" transform="translate(0,0)"/>
<path d="" fill="#183863" transform="translate(0,0)"/>
<path d="" fill="#1A3459" transform="translate(0,0)"/>
<path d="" fill="#1A3B66" transform="translate(0,0)"/>
<path d="" fill="#153863" transform="translate(0,0)"/>
<path d="" fill="#1A3C65" transform="translate(0,0)"/>
<path d="" fill="#213A5F" transform="translate(0,0)"/>
<path d="" fill="#13345E" transform="translate(0,0)"/>
<path d="" fill="#1C3962" transform="translate(0,0)"/>
<path d="" fill="#1A355B" transform="translate(0,0)"/>
<path d="" fill="#1B365B" transform="translate(0,0)"/>
<path d="" fill="#1C355B" transform="translate(0,0)"/>
<path d="" fill="#183C68" transform="translate(0,0)"/>
<path d="" fill="#213B5F" transform="translate(0,0)"/>
<path d="" fill="#18365F" transform="translate(0,0)"/>
<path d="" fill="#1C3C67" transform="translate(0,0)"/>
<path d="" fill="#1C3A66" transform="translate(0,0)"/>
<path d="" fill="#1A365E" transform="translate(0,0)"/>
<path d="" fill="#227DD0" transform="translate(0,0)"/>
<path d="" fill="#1C375E" transform="translate(0,0)"/>
<path d="" fill="#247DCB" transform="translate(0,0)"/>
<path d="" fill="#1D3D67" transform="translate(0,0)"/>
<path d="" fill="#1B375C" transform="translate(0,0)"/>
<path d="" fill="#257ECB" transform="translate(0,0)"/>
<path d="" fill="#245288" transform="translate(0,0)"/>
<path d="" fill="#203759" transform="translate(0,0)"/>
<path d="" fill="#235489" transform="translate(0,0)"/>
<path d="" fill="#2279CB" transform="translate(0,0)"/>
<path d="" fill="#1A335E" transform="translate(0,0)"/>
<path d="" fill="#2781CE" transform="translate(0,0)"/>
<path d="" fill="#237ECE" transform="translate(0,0)"/>
<path d="" fill="#227FD0" transform="translate(0,0)"/>
<path d="" fill="#16355D" transform="translate(0,0)"/>
<path d="" fill="#16335D" transform="translate(0,0)"/>
<path d="" fill="#193459" transform="translate(0,0)"/>
<path d="" fill="#183457" transform="translate(0,0)"/>
<path d="" fill="#18345E" transform="translate(0,0)"/>
<path d="" fill="#217DCC" transform="translate(0,0)"/>
<path d="" fill="#204679" transform="translate(0,0)"/>
<path d="" fill="#16345E" transform="translate(0,0)"/>
<path d="" fill="#16315A" transform="translate(0,0)"/>
<path d="" fill="#217FCE" transform="translate(0,0)"/>
<path d="" fill="#205186" transform="translate(0,0)"/>
<path d="" fill="#14345C" transform="translate(0,0)"/>
<path d="" fill="#18325A" transform="translate(0,0)"/>
<path d="" fill="#16335E" transform="translate(0,0)"/>
<path d="" fill="#1E8AE1" transform="translate(0,0)"/>
<path d="" fill="#218AE0" transform="translate(0,0)"/>
<path d="" fill="#208BE1" transform="translate(0,0)"/>
<path d="" fill="#217ACC" transform="translate(0,0)"/>
<path d="" fill="#214C81" transform="translate(0,0)"/>
<path d="" fill="#17365C" transform="translate(0,0)"/>
<path d="" fill="#208CDF" transform="translate(0,0)"/>
<path d="" fill="#1F82D4" transform="translate(0,0)"/>
<path d="" fill="#12335F" transform="translate(0,0)"/>
<path d="" fill="#0F3360" transform="translate(0,0)"/>
<path d="" fill="#11335F" transform="translate(0,0)"/>
<path d="" fill="#1B3860" transform="translate(0,0)"/>
<path d="" fill="#11325E" transform="translate(0,0)"/>
<path d="" fill="#15335C" transform="translate(0,0)"/>
<path d="" fill="#1C528C" transform="translate(0,0)"/>
<path d="" fill="#2676C4" transform="translate(0,0)"/>
<path d="" fill="#1D5595" transform="translate(0,0)"/>
<path d="" fill="#102F58" transform="translate(0,0)"/>
<path d="" fill="#13325C" transform="translate(0,0)"/>
<path d="" fill="#2373C3" transform="translate(0,0)"/>
<path d="" fill="#2388DB" transform="translate(0,0)"/>
<path d="" fill="#1A5491" transform="translate(0,0)"/>
<path d="" fill="#1D5798" transform="translate(0,0)"/>
<path d="" fill="#143159" transform="translate(0,0)"/>
<path d="" fill="#10315B" transform="translate(0,0)"/>
<path d="" fill="#13335B" transform="translate(0,0)"/>
<path d="" fill="#12305C" transform="translate(0,0)"/>
<path d="" fill="#14345C" transform="translate(0,0)"/>
<path d="" fill="#112D59" transform="translate(0,0)"/>
<path d="" fill="#1D355B" transform="translate(0,0)"/>
<path d="" fill="#1B87DF" transform="translate(0,0)"/>
<path d="" fill="#15345F" transform="translate(0,0)"/>
<path d="" fill="#12315E" transform="translate(0,0)"/>
<path d="" fill="#0E305B" transform="translate(0,0)"/>
<path d="" fill="#0F305A" transform="translate(0,0)"/>
<path d="" fill="#1B89E0" transform="translate(0,0)"/>
<path d="" fill="#12335D" transform="translate(0,0)"/>
<path d="" fill="#0F2D58" transform="translate(0,0)"/>
<path d="" fill="#10305A" transform="translate(0,0)"/>
<path d="" fill="#122E5B" transform="translate(0,0)"/>
<path d="" fill="#102F59" transform="translate(0,0)"/>
<path d="" fill="#0E2F59" transform="translate(0,0)"/>
<path d="" fill="#1D467A" transform="translate(0,0)"/>
<path d="" fill="#10315A" transform="translate(0,0)"/>
<path d="" fill="#18355F" transform="translate(0,0)"/>
<path d="" fill="#168ADF" transform="translate(0,0)"/>
<path d="" fill="#1B87DF" transform="translate(0,0)"/>
<path d="" fill="#11325E" transform="translate(0,0)"/>
<path d="" fill="#1A88E2" transform="translate(0,0)"/>
<path d="" fill="#11325E" transform="translate(0,0)"/>
<path d="" fill="#11335E" transform="translate(0,0)"/>
<path d="" fill="#13325E" transform="translate(0,0)"/>
<path d="" fill="#1D426F" transform="translate(0,0)"/>
<path d="" fill="#102E59" transform="translate(0,0)"/>
<path d="" fill="#0E2D57" transform="translate(0,0)"/>
<path d="" fill="#0F2E5D" transform="translate(0,0)"/>
<path d="" fill="#0D2E59" transform="translate(0,0)"/>
<path d="" fill="#1C5693" transform="translate(0,0)"/>
<path d="" fill="#1A3F6B" transform="translate(0,0)"/>
<path d="" fill="#0E2F5B" transform="translate(0,0)"/>
<path d="" fill="#19518C" transform="translate(0,0)"/>
<path d="" fill="#1D3659" transform="translate(0,0)"/>
<path d="" fill="#14335A" transform="translate(0,0)"/>
<path d="" fill="#12325C" transform="translate(0,0)"/>
<path d="" fill="#12325F" transform="translate(0,0)"/>
<path d="" fill="#1C5594" transform="translate(0,0)"/>
<path d="" fill="#0F305D" transform="translate(0,0)"/>
<path d="" fill="#1F82D6" transform="translate(0,0)"/>
<path d="" fill="#10315D" transform="translate(0,0)"/>
<path d="" fill="#10305E" transform="translate(0,0)"/>
<path d="" fill="#10325F" transform="translate(0,0)"/>
<path d="" fill="#11315E" transform="translate(0,0)"/>
<path d="" fill="#0F305B" transform="translate(0,0)"/>
<path d="" fill="#1E8CE0" transform="translate(0,0)"/>
<path d="" fill="#2289E0" transform="translate(0,0)"/>
<path d="" fill="#0E2C57" transform="translate(0,0)"/>
<path d="" fill="#1D4D8B" transform="translate(0,0)"/>
<path d="" fill="#10335E" transform="translate(0,0)"/>
<path d="" fill="#11325F" transform="translate(0,0)"/>
<path d="" fill="#102D59" transform="translate(0,0)"/>
<path d="" fill="#122F58" transform="translate(0,0)"/>
<path d="" fill="#0F2E58" transform="translate(0,0)"/>
<path d="" fill="#11305D" transform="translate(0,0)"/>
<path d="" fill="#153059" transform="translate(0,0)"/>
<path d="" fill="#0F315D" transform="translate(0,0)"/>
<path d="" fill="#207ED1" transform="translate(0,0)"/>
<path d="" fill="#16315B" transform="translate(0,0)"/>
<path d="" fill="#0E2F61" transform="translate(0,0)"/>
<path d="" fill="#143059" transform="translate(0,0)"/>
<path d="" fill="#123460" transform="translate(0,0)"/>
<path d="" fill="#18335B" transform="translate(0,0)"/>
<path d="" fill="#123360" transform="translate(0,0)"/>
<path d="" fill="#112F59" transform="translate(0,0)"/>
<path d="" fill="#207FD2" transform="translate(0,0)"/>
<path d="" fill="#12345F" transform="translate(0,0)"/>
<path d="" fill="#207DCE" transform="translate(0,0)"/>
<path d="" fill="#244B7C" transform="translate(0,0)"/>
<path d="" fill="#153258" transform="translate(0,0)"/>
<path d="" fill="#0F3261" transform="translate(0,0)"/>
<path d="" fill="#218DE1" transform="translate(0,0)"/>
<path d="" fill="#237DCA" transform="translate(0,0)"/>
<path d="" fill="#123260" transform="translate(0,0)"/>
<path d="" fill="#103361" transform="translate(0,0)"/>
<path d="" fill="#10315F" transform="translate(0,0)"/>
<path d="" fill="#113360" transform="translate(0,0)"/>
<path d="" fill="#103261" transform="translate(0,0)"/>
<path d="" fill="#0F325F" transform="translate(0,0)"/>
<path d="" fill="#102F5F" transform="translate(0,0)"/>
<path d="" fill="#237FCB" transform="translate(0,0)"/>
<path d="" fill="#1E88DF" transform="translate(0,0)"/>
<path d="" fill="#277CCA" transform="translate(0,0)"/>
<path d="" fill="#1D355D" transform="translate(0,0)"/>
<path d="" fill="#224775" transform="translate(0,0)"/>
<path d="" fill="#18345C" transform="translate(0,0)"/>
<path d="" fill="#2284D6" transform="translate(0,0)"/>
<path d="" fill="#18365F" transform="translate(0,0)"/>
<path d="" fill="#224772" transform="translate(0,0)"/>
<path d="" fill="#1D3658" transform="translate(0,0)"/>
<path d="" fill="#20385E" transform="translate(0,0)"/>
<path d="" fill="#2483D3" transform="translate(0,0)"/>
<path d="" fill="#297FCC" transform="translate(0,0)"/>
<path d="" fill="#2B83D0" transform="translate(0,0)"/>
<path d="" fill="#1D3A61" transform="translate(0,0)"/>
<path d="" fill="#2983D2" transform="translate(0,0)"/>
<path d="" fill="#1A3964" transform="translate(0,0)"/>
<path d="" fill="#1F426A" transform="translate(0,0)"/>
<path d="" fill="#20446F" transform="translate(0,0)"/>
<path d="" fill="#274F7C" transform="translate(0,0)"/>
<path d="" fill="#1E3964" transform="translate(0,0)"/>
<path d="" fill="#223B61" transform="translate(0,0)"/>
<path d="" fill="#213D63" transform="translate(0,0)"/>
<path d="" fill="#223B60" transform="translate(0,0)"/>
<path d="" fill="#243E64" transform="translate(0,0)"/>
<path d="" fill="#223A60" transform="translate(0,0)"/>
<path d="" fill="#2382D2" transform="translate(0,0)"/>
<path d="" fill="#2580D2" transform="translate(0,0)"/>
<path d="" fill="#2481D4" transform="translate(0,0)"/>
<path d="" fill="#2381D5" transform="translate(0,0)"/>
</svg>
